
[code]
::::::::::::  EP1C Presents  ::::::::::::

::File:: Mars.Needs.Moms.2011.R5.AC3.XViD-EP1C

::Video Source:: Tajna.Krasnoj.Planety.2011.D.DVD	
::Audio Source:: Tajna.Krasnoj.Planety.2011.D.DVD

::Language:::::: English
::IMDB:::::::::: http://www.imdb.com/title/tt1305591/
A young boy named Milo gains a deeper appreciation for his mom 
after Martians come to Earth to take her away.

::Specs:::::::::

Format                           : AVI
Format/Info                      : Audio Video Interleave
File size                        : 1.37 GiB
Duration                         : 1h 24mn
Overall bit rate                 : 2 321 Kbps
Writing application              : VirtualDubMod 1.5.10.2 (build 2540/release)
Writing library                  : VirtualDubMod build 2540/release

Video
ID                               : 0
Format                           : MPEG-4 Visual
Format profile                   : Advanced Simple@L5
Format settings, BVOP            : Yes
Format settings, QPel            : No
Format settings, GMC             : No warppoints
Format settings, Matrix          : Default (MPEG)
Muxing mode                      : Packed bitstream
Codec ID                         : XVID
Codec ID/Hint                    : XviD
Duration                         : 1h 24mn
Bit rate                         : 1 927 Kbps
Width                            : 720 pixels
Height                           : 288 pixels
Display aspect ratio             : 2.500
Frame rate                       : 25.000 fps
Color space                      : YUV
Chroma subsampling               : 4:2:0
Bit depth                        : 8 bits
Scan type                        : Progressive
Bits/(Pixel*Frame)               : 0.372
Stream size                      : 1.14 GiB (83%)
Writing library                  : XviD 58

Audio
ID                               : 1
Format                           : AC-3
Format/Info                      : Audio Coding 3
Mode extension                   : CM (complete main)
Codec ID                         : 2000
Duration                         : 1h 24mn
Bit rate mode                    : Constant
Bit rate                         : 384 Kbps
Channel(s)                       : 6 channels
Channel positions                : Front: L C R, Side: L R, LFE
Sampling rate                    : 48.0 KHz
Bit depth                        : 16 bits
Stream size                      : 232 MiB (17%)
Alignment                        : Split accross interleaves
Interleave, duration             : 40 ms (1.00 video frame)
Interleave, preload duration     : 500 ms

::NOTES::::::::: 
Presenting the first R5, Mars Needs Moms. 
Enjoy //EP1C
[/code]
Screens:
